{
  "accessors": [
    {
      "bufferView": 2,
      "componentType": 5126,
      "count": 6230,
      "max": [
        0.6138191819190979,
        0.5842308402061462,
        0.614308774471283
      ],
      "min": [
        -0.6138225793838501,
        -0.5888115763664246,
        -0.6144160032272339
      ],
      "type": "VEC3"
    },
    {
      "bufferView": 2,
      "byteOffset": 74760,
      "componentType": 5126,
      "count": 6230,
      "max": [
        0.9997770190238953,
        0.9999909400939941,
        0.9999908208847046
      ],
      "min": [
        -0.9994068741798401,
        -0.9999934434890747,
        -0.9999895095825195
      ],
      "type": "VEC3"
    },
    {
      "bufferView": 3,
      "componentType": 5126,
      "count": 6230,
      "max": [
        0.999718964099884,
        0.9999924302101135,
        0.9999315738677979,
        1.0
      ],
      "min": [
        -0.9988390803337097,
        -0.9999859929084778,
        -0.9999663829803467,
        -1.0
      ],
      "type": "VEC4"
    },
    {
      "bufferView": 1,
      "componentType": 5126,
      "count": 6230,
      "max": [
        0.9890860319137573,
        0.9890859723091125
      ],
      "min": [
        0.010914021171629429,
        0.01102137565612793
      ],
      "type": "VEC2"
    },
    {
      "bufferView": 0,
      "componentType": 5125,
      "count": 23148,
      "type": "SCALAR"
    },
    {
      "bufferView": 2,
      "byteOffset": 149520,
      "componentType": 5126,
      "count": 5049,
      "max": [
        0.5853765606880188,
        0.6409550309181213,
        0.5930296778678894
      ],
      "min": [
        -0.5850867629051208,
        -0.6358298063278198,
        -0.5868600010871887
      ],
      "type": "VEC3"
    },
    {
      "bufferView": 2,
      "byteOffset": 210108,
      "componentType": 5126,
      "count": 5049,
      "max": [
        0.9998981952667236,
        0.999996542930603,
        0.9989959597587585
      ],
      "min": [
        -0.9998661279678345,
        -1.0,
        -0.9998552799224854
      ],
      "type": "VEC3"
    },
    {
      "bufferView": 3,
      "byteOffset": 99680,
      "componentType": 5126,
      "count": 5049,
      "max": [
        0.9996285438537598,
        0.9880020022392273,
        0.9999731779098511,
        -1.0
      ],
      "min": [
        -0.9994692206382751,
        -0.9999850988388062,
        -0.9993413090705872,
        -1.0
      ],
      "type": "VEC4"
    },
    {
      "bufferView": 1,
      "byteOffset": 49840,
      "componentType": 5126,
      "count": 5049,
      "max": [
        0.9935904145240784,
        0.9935904145240784
      ],
      "min": [
        0.006409614812582731,
        0.12379252910614014
      ],
      "type": "VEC2"
    },
    {
      "bufferView": 0,
      "byteOffset": 92592,
      "componentType": 5125,
      "count": 24690,
      "type": "SCALAR"
    }
  ],
  "asset": {
    "extras": {
      "author": "IljaG (https://sketchfab.com/IljaG)",
      "license": "CC-BY-4.0 (http://creativecommons.org/licenses/by/4.0/)",
      "source": "https://sketchfab.com/3d-models/stylized-barrel-27c5320c57164ba08694d3b08824dc1b",
      "title": "Stylized Barrel"
    },
    "generator": "Sketchfab-15.58.0",
    "version": "2.0"
  },
  "bufferViews": [
    {
      "buffer": 0,
      "byteLength": 191352,
      "name": "floatBufferViews",
      "target": 34963
    },
    {
      "buffer": 0,
      "byteLength": 90232,
      "byteOffset": 191352,
      "byteStride": 8,
      "name": "floatBufferViews",
      "target": 34962
    },
    {
      "buffer": 0,
      "byteLength": 270696,
      "byteOffset": 281584,
      "byteStride": 12,
      "name": "floatBufferViews",
      "target": 34962
    },
    {
      "buffer": 0,
      "byteLength": 180464,
      "byteOffset": 552280,
      "byteStride": 16,
      "name": "floatBufferViews",
      "target": 34962
    }
  ],
  "buffers": [
    {
      "byteLength": 732744,
      "uri": "scene.bin"
    }
  ],
  "extensionsUsed": [
    "KHR_materials_clearcoat",
    "KHR_materials_specular"
  ],
  "images": [
    {
      "uri": "textures/Material.001_normal.png"
    },
    {
      "uri": "textures/Material.002_metallicRoughness.png"
    },
    {
      "uri": "textures/Material.002_normal.png"
    }
  ],
  "materials": [
    {
      "doubleSided": true,
      "extensions": {
        "KHR_materials_clearcoat": {
          "clearcoatFactor": 1.0,
          "clearcoatRoughnessFactor": 0.0
        },
        "KHR_materials_specular": {
          "specularColorFactor": [
            1.0,
            1.0,
            1.0
          ],
          "specularFactor": 1.0
        }
      },
      "name": "Material.001",
      "normalTexture": {
        "index": 0
      },
      "pbrMetallicRoughness": {
        "baseColorFactor": [
          0.222807,
          0.203183,
          0.122477,
          1.0
        ],
        "roughnessFactor": 0.23716
      }
    },
    {
      "doubleSided": true,
      "extensions": {
        "KHR_materials_clearcoat": {
          "clearcoatFactor": 1.0,
          "clearcoatNormalTexture": {
            "index": 2
          },
          "clearcoatRoughnessFactor": 1.0,
          "clearcoatTexture": {
            "index": 1
          }
        },
        "KHR_materials_specular": {
          "specularColorFactor": [
            1.0,
            1.0,
            1.0
          ],
          "specularFactor": 0.0
        }
      },
      "name": "Material.002",
      "normalTexture": {
        "index": 2
      },
      "occlusionTexture": {
        "index": 1,
        "strength": 0.5165730028891516
      },
      "pbrMetallicRoughness": {
        "baseColorFactor": [
          0.12702399999999997,
          0.07491093729208795,
          0.0462887,
          1.0
        ],
        "metallicFactor": 0.3276200460801404,
        "metallicRoughnessTexture": {
          "index": 1
        },
        "roughnessFactor": 0.6
      }
    }
  ],
  "meshes": [
    {
      "name": "Object_0",
      "primitives": [
        {
          "attributes": {
            "NORMAL": 1,
            "POSITION": 0,
            "TANGENT": 2,
            "TEXCOORD_0": 3
          },
          "indices": 4,
          "material": 0,
          "mode": 4
        }
      ]
    },
    {
      "name": "Object_1",
      "primitives": [
        {
          "attributes": {
            "NORMAL": 6,
            "POSITION": 5,
            "TANGENT": 7,
            "TEXCOORD_0": 8
          },
          "indices": 9,
          "material": 1,
          "mode": 4
        }
      ]
    }
  ],
  "nodes": [
    {
      "children": [
        1
      ],
      "matrix": [
        1.0,
        0.0,
        0.0,
        0.0,
        0.0,
        2.220446049250313e-16,
        -1.0,
        0.0,
        0.0,
        1.0,
        2.220446049250313e-16,
        0.0,
        0.0,
        0.0,
        0.0,
        1.0
      ],
      "name": "Sketchfab_model"
    },
    {
      "children": [
        2
      ],
      "name": "root"
    },
    {
      "children": [
        3
      ],
      "matrix": [
        1.0,
        0.0,
        0.0,
        0.0,
        0.0,
        2.220446049250313e-16,
        1.0,
        0.0,
        0.0,
        -1.0,
        2.220446049250313e-16,
        0.0,
        0.0,
        0.0,
        0.0,
        1.0
      ],
      "name": "GLTF_SceneRootNode"
    },
    {
      "children": [
        4,
        5
      ],
      "name": "Bolts low poly_0"
    },
    {
      "mesh": 0,
      "name": "Object_4"
    },
    {
      "mesh": 1,
      "name": "Object_5"
    }
  ],
  "samplers": [
    {
      "magFilter": 9729,
      "minFilter": 9987,
      "wrapS": 10497,
      "wrapT": 10497
    }
  ],
  "scene": 0,
  "scenes": [
    {
      "name": "Sketchfab_Scene",
      "nodes": [
        0
      ]
    }
  ],
  "textures": [
    {
      "sampler": 0,
      "source": 0
    },
    {
      "sampler": 0,
      "source": 1
    },
    {
      "sampler": 0,
      "source": 2
    }
  ]
}
